<?xml version="1.0" encoding="UTF-8"?>
<svg xmlns="http://www.w3.org/2000/svg" xmlns:xlink="http://www.w3.org/1999/xlink" width="500" zoomAndPan="magnify" viewBox="0 0 375 374.999991" height="500" preserveAspectRatio="xMidYMid meet" version="1.0" style="background: transparent;"><path fill="#53c1de" d="M 220.984375 187.324219 C 220.984375 169.378906 205.996094 154.832031 187.5 154.832031 C 169.007812 154.832031 154.015625 169.378906 154.015625 187.324219 C 154.015625 205.269531 169.007812 219.816406 187.5 219.816406 C 205.996094 219.816406 220.984375 205.269531 220.984375 187.324219 Z M 220.984375 187.324219 " fill-opacity="1" fill-rule="nonzero"/><path fill="#53c1de" d="M 296.253906 127.003906 C 303.324219 99.121094 312.210938 47.417969 280.878906 29.890625 C 249.691406 12.4375 209.105469 45.878906 187.671875 65.953125 C 166.304688 46.078125 124.582031 12.78125 93.273438 30.363281 C 62.097656 47.875 71.710938 98.722656 78.9375 126.777344 C 49.855469 134.792969 0.00390625 152.054688 0.00390625 187.324219 C 0.00390625 222.492188 49.804688 241.273438 78.714844 249.28125 C 71.460938 277.492188 62.328125 327.609375 93.542969 345.082031 C 124.96875 362.664062 166.5625 330.15625 188.191406 309.863281 C 209.761719 330.058594 249.957031 362.777344 281.152344 345.253906 C 312.441406 327.679688 304.292969 276.667969 297.0625 248.449219 C 325.089844 240.425781 374.996094 222.054688 374.996094 187.324219 C 374.996094 152.394531 324.875 134.992188 296.253906 127.003906 Z M 292.699219 233.496094 C 287.953125 218.917969 281.546875 203.414062 273.710938 187.402344 C 281.191406 171.765625 287.347656 156.460938 291.960938 141.980469 C 312.945312 147.882812 358.976562 161.371094 358.976562 187.324219 C 358.976562 213.519531 314.804688 227.136719 292.699219 233.496094 Z M 273.125 331.804688 C 249.847656 344.875 215.277344 313.585938 199.347656 298.714844 C 209.914062 287.5 220.472656 274.464844 230.78125 259.988281 C 248.910156 258.429688 266.035156 255.875 281.566406 252.390625 C 286.65625 272.351562 296.5 318.671875 273.125 331.804688 Z M 101.546875 331.617188 C 78.269531 318.59375 88.910156 273.867188 94.246094 253.089844 C 109.605469 256.386719 126.609375 258.757812 144.78125 260.1875 C 155.15625 274.351562 166.019531 287.371094 176.96875 298.777344 C 163.441406 311.472656 124.933594 344.699219 101.546875 331.617188 Z M 16.023438 187.324219 C 16.023438 161.03125 61.777344 147.636719 83.242188 141.75 C 87.933594 156.558594 94.089844 172.042969 101.515625 187.703125 C 93.992188 203.59375 87.75 219.324219 83.011719 234.308594 C 62.550781 228.625 16.023438 213.632812 16.023438 187.324219 Z M 101.296875 43.816406 C 124.671875 30.691406 160.933594 62.660156 176.449219 77.046875 C 165.554688 88.398438 154.789062 101.320312 144.503906 115.40625 C 126.867188 116.992188 109.984375 119.539062 94.464844 122.949219 C 88.644531 100.320312 77.953125 56.929688 101.296875 43.816406 Z M 242.238281 132.300781 C 254.203125 133.765625 265.667969 135.714844 276.433594 138.097656 C 273.199219 148.148438 269.171875 158.65625 264.429688 169.429688 C 257.554688 156.769531 250.171875 144.363281 242.238281 132.300781 Z M 187.679688 88.15625 C 195.066406 95.921875 202.46875 104.59375 209.746094 114.003906 C 194.980469 113.324219 180.191406 113.324219 165.425781 113.992188 C 172.710938 104.671875 180.175781 96.011719 187.679688 88.15625 Z M 110.707031 169.417969 C 106.042969 158.683594 102.050781 148.125 98.792969 137.933594 C 109.492188 135.609375 120.902344 133.710938 132.789062 132.269531 C 124.832031 144.308594 117.464844 156.710938 110.707031 169.417969 Z M 133.128906 243.484375 C 120.851562 242.15625 109.265625 240.355469 98.570312 238.09375 C 101.882812 227.722656 105.960938 216.941406 110.726562 205.972656 C 117.578125 218.8125 125.058594 231.332031 133.128906 243.484375 Z M 188.121094 287.589844 C 180.53125 279.640625 172.957031 270.847656 165.558594 261.390625 C 180.410156 261.957031 195.289062 261.957031 210.136719 261.316406 C 202.835938 270.945312 195.460938 279.75 188.121094 287.589844 Z M 264.582031 205.414062 C 269.59375 216.5 273.820312 227.222656 277.175781 237.421875 C 266.300781 239.828125 254.5625 241.769531 242.195312 243.207031 C 250.1875 230.914062 257.683594 218.316406 264.582031 205.414062 Z M 221.839844 245.09375 C 199.125 246.667969 176.269531 246.648438 153.546875 245.222656 C 140.636719 226.921875 129.144531 207.675781 119.222656 187.699219 C 129.097656 167.757812 140.507812 148.550781 153.355469 130.28125 C 176.09375 128.613281 198.972656 128.609375 221.710938 130.292969 C 234.449219 148.5625 245.84375 167.71875 255.945312 187.476562 C 245.960938 207.402344 234.492188 226.648438 221.839844 245.09375 Z M 272.875 43.355469 C 296.253906 56.4375 285.847656 102.90625 280.742188 123.113281 C 265.183594 119.628906 248.289062 117.035156 230.601562 115.425781 C 220.296875 101.1875 209.621094 88.242188 198.90625 77.039062 C 214.617188 62.339844 249.726562 30.398438 272.875 43.355469 Z M 272.875 43.355469 " fill-opacity="1" fill-rule="evenodd"/></svg>