<?xml version="1.0" encoding="UTF-8"?>
<svg xmlns="http://www.w3.org/2000/svg" xmlns:xlink="http://www.w3.org/1999/xlink" width="500" zoomAndPan="magnify" viewBox="0 0 375 374.999991" height="500" preserveAspectRatio="xMidYMid meet" version="1.0" style="background: transparent;"><defs><clipPath id="11226d7a04"><path d="M 0 27.421875 L 375 27.421875 L 375 347.671875 L 0 347.671875 Z M 0 27.421875 " clip-rule="nonzero"/></clipPath></defs><g clip-path="url(#11226d7a04)"><path fill="#f6f0e0" d="M 150.289062 347.621094 C 75.480469 347.621094 0 325.691406 0 276.695312 L 0.00390625 98.425781 C 0 49.402344 75.480469 27.472656 150.289062 27.472656 C 225.101562 27.472656 300.582031 49.402344 300.582031 98.398438 L 300.582031 147.640625 L 326.511719 147.640625 C 353.25 147.640625 375 169.398438 375 196.140625 L 375 269.390625 C 375 296.132812 353.25 317.894531 326.511719 317.894531 L 276.410156 317.894531 C 250.445312 336.351562 203.152344 347.621094 150.289062 347.621094 Z M 150.289062 347.621094 " fill-opacity="1" fill-rule="nonzero"/></g><path fill="#009bd1" d="M 275.339844 216.523438 L 25.242188 216.523438 C 25.242188 216.523438 25.242188 276.6875 25.242188 276.695312 C 25.242188 301.921875 81.226562 322.375 150.292969 322.375 C 219.355469 322.375 275.34375 301.921875 275.34375 276.695312 C 275.34375 276.6875 275.339844 216.523438 275.339844 216.523438 Z M 275.339844 216.523438 " fill-opacity="1" fill-rule="nonzero"/><path fill="#62c1d3" d="M 275.339844 157.4375 L 25.242188 157.4375 C 25.242188 157.4375 25.242188 217.597656 25.242188 217.605469 C 25.242188 242.835938 81.226562 263.289062 150.292969 263.289062 C 219.355469 263.289062 275.34375 242.835938 275.34375 217.605469 C 275.34375 217.597656 275.339844 157.4375 275.339844 157.4375 Z M 275.339844 157.4375 " fill-opacity="1" fill-rule="nonzero"/><path fill="#81c6d5" d="M 275.339844 98.421875 L 25.242188 98.421875 C 25.242188 98.421875 25.242188 158.585938 25.242188 158.59375 C 25.242188 183.820312 81.226562 204.273438 150.292969 204.273438 C 219.355469 204.273438 275.34375 183.820312 275.34375 158.59375 C 275.34375 158.585938 275.339844 98.421875 275.339844 98.421875 Z M 275.339844 98.421875 " fill-opacity="1" fill-rule="nonzero"/><path fill="#b4e0e9" d="M 150.292969 144.082031 C 219.355469 144.082031 275.34375 123.628906 275.34375 98.398438 C 275.34375 73.171875 219.355469 52.71875 150.292969 52.71875 C 81.226562 52.71875 25.242188 73.171875 25.242188 98.398438 C 25.242188 123.628906 81.226562 144.082031 150.292969 144.082031 Z M 150.292969 144.082031 " fill-opacity="1" fill-rule="nonzero"/><path fill="#f8ef90" d="M 322.898438 172.890625 L 177.152344 172.890625 C 162.316406 172.890625 150.292969 184.917969 150.292969 199.757812 L 150.292969 265.773438 C 150.292969 280.617188 162.316406 292.644531 177.152344 292.644531 L 322.898438 292.644531 C 337.734375 292.644531 349.757812 280.617188 349.757812 265.773438 L 349.757812 199.757812 C 349.757812 184.917969 337.734375 172.890625 322.898438 172.890625 Z M 322.898438 172.890625 " fill-opacity="1" fill-rule="nonzero"/><path fill="#f9cc4b" d="M 254.148438 204.8125 L 245.429688 204.8125 C 239.871094 204.8125 235.367188 209.316406 235.367188 214.875 L 235.367188 242.785156 C 235.367188 248.34375 239.871094 252.851562 245.429688 252.851562 L 254.148438 252.851562 C 259.707031 252.851562 264.210938 248.34375 264.210938 242.785156 L 264.210938 214.875 C 264.210938 209.316406 259.707031 204.8125 254.148438 204.8125 Z M 254.148438 204.8125 " fill-opacity="1" fill-rule="nonzero"/><path fill="#30100b" d="M 326.511719 165.671875 L 282.554688 165.671875 L 282.554688 98.425781 C 282.554688 98.421875 282.550781 98.417969 282.550781 98.414062 C 282.550781 98.410156 282.554688 98.402344 282.554688 98.398438 C 282.554688 64.042969 214.410156 45.507812 150.289062 45.507812 C 86.171875 45.507812 18.027344 64.042969 18.027344 98.398438 C 18.027344 98.40625 18.03125 98.417969 18.03125 98.425781 L 18.027344 276.695312 C 18.027344 311.050781 86.171875 329.585938 150.289062 329.585938 C 202.632812 329.585938 249.332031 317.953125 270.230469 299.859375 L 326.511719 299.859375 C 343.308594 299.859375 356.972656 286.191406 356.972656 269.390625 L 356.972656 196.140625 C 356.972656 179.339844 343.308594 165.671875 326.511719 165.671875 Z M 173.539062 165.671875 C 156.742188 165.671875 143.078125 179.339844 143.078125 196.140625 L 143.078125 196.925781 C 77.628906 195.558594 32.492188 176.089844 32.457031 158.613281 L 32.453125 123.304688 C 55.796875 141.589844 104.023438 151.296875 150.289062 151.296875 C 196.5625 151.296875 244.789062 141.589844 268.128906 123.304688 L 268.128906 158.59375 C 268.128906 160.890625 267.261719 163.261719 265.605469 165.671875 Z M 32.457031 217.628906 L 32.453125 183.449219 C 54.617188 200.796875 99.171875 210.410156 143.078125 211.355469 L 143.078125 255.945312 C 77.679688 254.566406 32.492188 235.019531 32.457031 217.628906 Z M 150.289062 59.933594 C 217.734375 59.933594 268.128906 80.242188 268.128906 98.398438 C 268.128906 116.558594 217.734375 136.867188 150.289062 136.867188 C 82.847656 136.867188 32.453125 116.558594 32.453125 98.398438 C 32.453125 80.242188 82.847656 59.933594 150.289062 59.933594 Z M 150.289062 315.160156 C 82.847656 315.160156 32.453125 294.851562 32.453125 276.695312 L 32.453125 242.40625 C 54.667969 259.78125 99.359375 269.449219 143.179688 270.378906 C 143.710938 286.714844 157.078125 299.859375 173.539062 299.859375 L 242.28125 299.859375 C 219.984375 309.320312 186.347656 315.160156 150.289062 315.160156 Z M 342.546875 269.390625 C 342.546875 278.238281 335.355469 285.429688 326.511719 285.429688 L 173.539062 285.429688 C 164.695312 285.429688 157.503906 278.238281 157.503906 269.390625 L 157.503906 196.140625 C 157.503906 187.292969 164.695312 180.101562 173.539062 180.101562 L 326.511719 180.101562 C 335.355469 180.101562 342.546875 187.292969 342.546875 196.140625 Z M 186.433594 213.289062 L 186.433594 220.355469 C 186.433594 221.050781 187 221.613281 187.695312 221.613281 L 199.589844 221.613281 C 208.242188 221.613281 215.277344 228.652344 215.277344 237.308594 L 215.277344 244.367188 C 215.277344 253.027344 208.242188 260.0625 199.589844 260.0625 L 187.695312 260.0625 C 179.046875 260.0625 172.007812 253.027344 172.007812 244.367188 L 172.007812 242.488281 C 172.007812 238.5 175.238281 235.273438 179.222656 235.273438 C 183.203125 235.273438 186.433594 238.5 186.433594 242.488281 L 186.433594 244.367188 C 186.433594 245.066406 187 245.636719 187.695312 245.636719 L 199.589844 245.636719 C 200.285156 245.636719 200.855469 245.066406 200.855469 244.367188 L 200.855469 237.308594 C 200.855469 236.613281 200.285156 236.042969 199.589844 236.042969 L 187.695312 236.042969 C 179.046875 236.042969 172.007812 229.003906 172.007812 220.355469 L 172.007812 213.289062 C 172.007812 204.636719 179.046875 197.601562 187.695312 197.601562 L 199.589844 197.601562 C 208.242188 197.601562 215.277344 204.636719 215.277344 213.289062 C 215.277344 217.273438 212.050781 220.5 208.066406 220.5 C 204.085938 220.5 200.855469 217.273438 200.855469 213.289062 C 200.855469 212.589844 200.285156 212.027344 199.589844 212.027344 L 187.695312 212.027344 C 187 212.027344 186.433594 212.589844 186.433594 213.289062 Z M 271.421875 244.144531 L 271.421875 213.519531 C 271.421875 204.742188 264.28125 197.601562 255.503906 197.601562 L 244.070312 197.601562 C 235.292969 197.601562 228.152344 204.742188 228.152344 213.519531 L 228.152344 244.144531 C 228.152344 252.921875 235.292969 260.0625 244.070312 260.0625 L 255.503906 260.0625 C 255.851562 260.0625 256.171875 259.984375 256.511719 259.960938 C 260.976562 264.421875 267.722656 266.214844 273.871094 264.382812 C 279.949219 261.785156 270.386719 255.5625 269.132812 252.242188 C 270.554688 249.859375 271.421875 247.113281 271.421875 244.144531 Z M 242.578125 244.144531 L 242.578125 213.519531 C 242.578125 212.695312 243.25 212.027344 244.070312 212.027344 L 255.503906 212.027344 C 256.332031 212.027344 257 212.695312 257 213.519531 L 257 244.144531 C 257 244.96875 256.332031 245.636719 255.503906 245.636719 L 244.070312 245.636719 C 243.25 245.636719 242.578125 244.96875 242.578125 244.144531 Z M 329.113281 244.144531 C 329.113281 252.921875 321.972656 260.0625 313.199219 260.0625 L 301.765625 260.0625 C 292.984375 260.0625 285.847656 252.921875 285.847656 244.144531 L 285.847656 204.8125 C 285.847656 200.824219 289.074219 197.601562 293.058594 197.601562 C 297.039062 197.601562 300.269531 200.824219 300.269531 204.8125 L 300.269531 244.144531 C 300.269531 244.96875 300.941406 245.636719 301.765625 245.636719 L 313.199219 245.636719 C 314.023438 245.636719 314.691406 244.96875 314.691406 244.144531 C 314.691406 240.15625 317.921875 236.929688 321.902344 236.929688 C 325.886719 236.929688 329.113281 240.15625 329.113281 244.144531 Z M 102.386719 98.398438 C 102.386719 97.699219 102.949219 97.136719 103.648438 97.136719 L 118.070312 97.136719 C 118.769531 97.136719 119.332031 97.699219 119.332031 98.398438 C 119.332031 99.09375 118.769531 99.660156 118.070312 99.660156 L 103.648438 99.660156 C 102.949219 99.660156 102.386719 99.09375 102.386719 98.398438 Z M 138.445312 98.398438 C 138.445312 97.699219 139.007812 97.136719 139.707031 97.136719 L 154.128906 97.136719 C 154.828125 97.136719 155.390625 97.699219 155.390625 98.398438 C 155.390625 99.09375 154.828125 99.660156 154.128906 99.660156 L 139.707031 99.660156 C 139.007812 99.660156 138.445312 99.09375 138.445312 98.398438 Z M 174.503906 98.398438 C 174.503906 97.699219 175.066406 97.136719 175.765625 97.136719 L 190.1875 97.136719 C 190.882812 97.136719 191.445312 97.699219 191.445312 98.398438 C 191.445312 99.09375 190.882812 99.660156 190.1875 99.660156 L 175.765625 99.660156 C 175.066406 99.660156 174.503906 99.09375 174.503906 98.398438 Z M 174.503906 98.398438 " fill-opacity="1" fill-rule="nonzero"/></svg>