<svg xmlns="http://www.w3.org/2000/svg" xmlns:xlink="http://www.w3.org/1999/xlink" width="1024" zoomAndPan="magnify" viewBox="0 0 768 767.999994" height="1024" preserveAspectRatio="xMidYMid meet" version="1.0"><defs><clipPath id="0a971db957"><path d="M 7 38.398438 L 757.761719 38.398438 L 757.761719 711 L 7 711 Z M 7 38.398438 " clip-rule="nonzero"/></clipPath></defs><rect x="-76.8" width="921.6" fill="#ffffff" y="-76.799999" height="921.599993" fill-opacity="1"/><rect x="-76.8" width="921.6" fill="#ffffff" y="-76.799999" height="921.599993" fill-opacity="1"/><path fill="#000000" d="M 39.199219 728.566406 L 39.167969 728.320312 L 39.136719 728.222656 Z M 39.199219 728.566406 " fill-opacity="1" fill-rule="nonzero"/><path fill="#41b883" d="M 28.878906 61.855469 L 382.335938 671.734375 L 735.792969 61.855469 L 594.390625 61.855469 L 382.335938 427.785156 L 168.496094 61.855469 Z M 28.878906 61.855469 " fill-opacity="1" fill-rule="nonzero"/><path fill="#35495e" d="M 168.496094 61.855469 L 382.335938 429.566406 L 594.425781 61.855469 L 463.632812 61.855469 L 382.335938 203.289062 L 299.257812 61.855469 Z M 168.496094 61.855469 " fill-opacity="1" fill-rule="nonzero"/><g clip-path="url(#0a971db957)"><path fill="#000000" d="M 382.335938 710.832031 C 373.863281 710.832031 366.046875 706.273438 361.886719 698.886719 L 10.121094 73.519531 C 6.054688 66.265625 6.121094 57.351562 10.304688 50.160156 C 14.527344 42.96875 22.222656 38.558594 30.566406 38.558594 L 164.023438 38.558594 C 164.863281 38.464844 165.777344 38.398438 166.679688 38.398438 L 299.289062 38.398438 C 307.695312 38.398438 315.425781 42.902344 319.609375 50.160156 L 382.335938 159.246094 L 445.152344 50.160156 C 449.34375 42.902344 457.097656 38.398438 465.480469 38.398438 L 598.089844 38.398438 C 599.089844 38.398438 600.054688 38.464844 601.023438 38.585938 L 734.105469 38.585938 C 742.449219 38.585938 750.144531 43.03125 754.328125 50.191406 C 758.519531 57.382812 758.617188 66.296875 754.519531 73.550781 L 402.753906 698.886719 C 398.625 706.273438 390.808594 710.832031 382.335938 710.832031 Z M 70.6875 85.472656 L 382.335938 639.558594 L 693.984375 85.503906 L 597.992188 85.503906 C 596.992188 85.503906 596.023438 85.441406 595.046875 85.3125 L 479.046875 85.3125 L 402.65625 217.953125 C 398.472656 225.238281 390.710938 229.710938 382.335938 229.710938 C 373.921875 229.710938 366.199219 225.207031 362.007812 217.953125 L 285.71875 85.3125 L 169.335938 85.3125 C 168.496094 85.40625 167.582031 85.472656 166.679688 85.472656 Z M 70.6875 85.472656 " fill-opacity="1" fill-rule="nonzero"/></g></svg>